<svg xmlns="http://www.w3.org/2000/svg" xmlns:xlink="http://www.w3.org/1999/xlink" width="500" zoomAndPan="magnify" viewBox="0 0 375 374.999991" height="500" preserveAspectRatio="xMidYMid meet" version="1.0"><path fill="#f16529" d="M 287.574219 99.25 C 287.042969 99.648438 286.707031 100.265625 286.707031 100.96875 C 286.707031 101.191406 286.734375 101.398438 286.792969 101.589844 L 286.792969 101.574219 C 287.191406 102.367188 287.425781 103.292969 287.425781 104.28125 C 287.425781 105.765625 286.898438 107.132812 286 108.191406 L 286.015625 108.175781 C 285.734375 108.53125 285.574219 108.96875 285.574219 109.457031 C 285.574219 110.101562 285.882812 110.691406 286.351562 111.074219 C 286.691406 111.339844 287.117188 111.5 287.589844 111.515625 C 288.207031 111.515625 288.765625 111.21875 289.148438 110.78125 C 290.601562 109.03125 291.5 106.765625 291.5 104.28125 C 291.5 102.632812 291.101562 101.101562 290.410156 99.71875 C 290.042969 99.207031 289.441406 98.867188 288.765625 98.867188 C 288.324219 98.867188 287.910156 99.015625 287.574219 99.25 Z M 287.574219 99.25 " fill-opacity="1" fill-rule="nonzero"/><path fill="#f16529" d="M 290.425781 99.734375 L 290.398438 99.675781 L 290.410156 99.71875 Z M 290.425781 99.734375 " fill-opacity="1" fill-rule="nonzero"/><path fill="#f16529" d="M 209.21875 11.75 C 112.574219 -0.648438 24.148438 67.648438 11.75 164.308594 C -0.648438 260.957031 67.632812 349.367188 164.292969 361.78125 C 260.957031 374.175781 349.410156 305.882812 361.78125 209.21875 C 374.191406 112.574219 305.910156 24.160156 209.21875 11.75 Z M 245.558594 121.824219 C 242.148438 121.867188 239.074219 123.265625 236.839844 125.5 L 171.351562 190.984375 L 157.382812 177.015625 C 221.925781 112.660156 233.574219 112.042969 245.558594 121.824219 Z M 174.042969 193.308594 L 239.339844 128.015625 C 241 126.28125 243.339844 125.191406 245.941406 125.191406 C 250.96875 125.191406 255.058594 129.28125 255.058594 134.308594 C 255.058594 137.101562 253.792969 139.617188 251.808594 141.28125 L 251.792969 141.292969 L 182.691406 201.957031 Z M 178.898438 203.515625 L 162.71875 207.015625 C 162.660156 207.03125 162.589844 207.03125 162.53125 207.03125 C 162.191406 207.03125 161.882812 206.839844 161.734375 206.542969 C 161.660156 206.410156 161.617188 206.265625 161.617188 206.101562 C 161.617188 205.851562 161.71875 205.632812 161.882812 205.46875 L 171.367188 195.984375 Z M 137.675781 196.765625 L 154.910156 179.53125 L 167.839844 192.441406 L 138.734375 198.707031 C 138.648438 198.71875 138.558594 198.734375 138.457031 198.734375 C 138.03125 198.734375 137.660156 198.484375 137.484375 198.132812 C 137.382812 197.96875 137.324219 197.78125 137.324219 197.558594 C 137.324219 197.25 137.457031 196.957031 137.675781 196.765625 Z M 84.058594 285.839844 C 83.484375 285.792969 83.042969 285.324219 83.042969 284.734375 C 83.042969 284.691406 83.042969 284.660156 83.042969 284.617188 C 83.074219 284.351562 83.191406 284.117188 83.367188 283.941406 L 83.398438 283.941406 L 97.308594 270.03125 L 115.28125 288 Z M 119.734375 267.382812 C 118.632812 267.957031 117.910156 269.074219 117.910156 270.367188 C 117.910156 270.648438 117.941406 270.910156 118.015625 271.175781 L 118.015625 271.148438 L 121 283.867188 C 121.03125 284 121.058594 284.148438 121.058594 284.308594 C 121.058594 285.324219 120.234375 286.148438 119.21875 286.148438 C 118.707031 286.148438 118.234375 285.941406 117.898438 285.589844 L 117.851562 285.589844 L 99.792969 267.515625 L 155.117188 212.25 L 181.882812 206.46875 L 194.734375 219.324219 C 176.28125 235.53125 151.042969 251.691406 119.734375 267.382812 Z M 197.351562 216.96875 L 197.324219 216.96875 L 184.984375 204.632812 L 254.089844 143.96875 C 254.71875 143.398438 255.292969 142.792969 255.808594 142.132812 L 255.839844 142.101562 C 253.675781 161.882812 226 189.824219 197.351562 216.96875 Z M 270.03125 129.792969 C 262.648438 129.792969 255.96875 126.808594 251.132812 121.96875 L 251.148438 121.96875 L 251.101562 121.941406 C 246.28125 117.101562 243.292969 110.410156 243.292969 103.042969 C 243.292969 88.25 255.292969 76.25 270.089844 76.25 C 276.648438 76.25 282.648438 78.601562 287.292969 82.515625 L 287.25 82.484375 L 263.574219 106.207031 C 263.25 106.53125 263.058594 106.957031 263.058594 107.441406 C 263.058594 107.925781 263.25 108.367188 263.574219 108.675781 L 281.910156 127.015625 C 278.441406 128.765625 274.351562 129.792969 270.03125 129.792969 Z M 289.058594 121.96875 C 287.867188 123.148438 286.574219 124.191406 285.160156 125.117188 L 285.074219 125.175781 L 285.058594 125.175781 L 267.308594 107.425781 L 289.851562 84.882812 C 299.574219 95.46875 299.21875 111.824219 289.058594 121.96875 Z M 289.058594 121.96875 " fill-opacity="1" fill-rule="nonzero"/></svg>